<?xml version="1.0" standalone="no"?><!DOCTYPE svg PUBLIC "-//W3C//DTD SVG 1.1//EN" "http://www.w3.org/Graphics/SVG/1.1/DTD/svg11.dtd"><svg t="1721311704306" class="icon" viewBox="0 0 1024 1024" version="1.1" xmlns="http://www.w3.org/2000/svg" p-id="15410" data-darkreader-inline-fill="" xmlns:xlink="http://www.w3.org/1999/xlink"><path fill="#f40002" d="M799.97 959.73H514.24c-246.89 0-447.75-200.87-447.75-447.75S267.34 64.22 514.23 64.22s447.75 200.87 447.75 447.75c0 116.7-44.17 226.11-124.7 309.89v100.55c0 20.6-16.71 37.31-37.32 37.31zM514.23 138.84c-205.75 0-373.12 167.38-373.12 373.12s167.38 373.13 373.12 373.13h248.42v-78.64c0-10.09 4.09-19.75 11.32-26.79 73.11-70.94 113.38-166.01 113.38-267.71 0-205.74-167.38-373.12-373.12-373.12z"></path><path fill="#f40002" d="M306.9 340.67h68.15v133.99h128.92V340.67h67.69V681.4h-67.69V534.06H375.05V681.4H306.9V340.67zM655.45 340.67h68.15V681.4h-68.15V340.67z"></path></svg>